{"asset":{"version":"2.0","generator":"DSC-HUB dash accents"},"scene":0,"scenes":[{"nodes":[0]}],"nodes":[{"mesh":0,"name":"fan_housing"}],"meshes":[{"name":"fan_housing","primitives":[{"attributes":{"POSITION":0},"indices":1,"mode":4}]}],"accessors":[{"bufferView":0,"componentType":5126,"count":58,"type":"VEC3","max":[0.255,0.1,0.255],"min":[-0.255,-0.1,-0.255]},{"bufferView":1,"componentType":5123,"count":168,"type":"SCALAR"}],"bufferViews":[{"buffer":0,"byteOffset":0,"byteLength":696,"target":34962},{"buffer":0,"byteOffset":696,"byteLength":336,"target":34963}],"buffers":[{"byteLength":1032,"uri":"data:application/octet-stream;base64,"}]}