{"asset":{"version":"2.0","generator":"DSC-HUB dash accents"},"scene":0,"scenes":[{"nodes":[0]}],"nodes":[{"mesh":0,"name":"flange"}],"meshes":[{"name":"flange","primitives":[{"attributes":{"POSITION":0},"indices":1,"mode":4}]}],"accessors":[{"bufferView":0,"componentType":5126,"count":275,"type":"VEC3","max":[0.208,0.026629582456264303,0.208],"min":[-0.208,-0.026629582456264303,-0.208]},{"bufferView":1,"componentType":5123,"count":1440,"type":"SCALAR"}],"bufferViews":[{"buffer":0,"byteOffset":0,"byteLength":3300,"target":34962},{"buffer":0,"byteOffset":3300,"byteLength":2880,"target":34963}],"buffers":[{"byteLength":6180,"uri":"data:application/octet-stream;base64,"}]}