{"asset":{"version":"2.0","generator":"DSC-HUB dash accents"},"scene":0,"scenes":[{"nodes":[0]}],"nodes":[{"mesh":0,"name":"muffler"}],"meshes":[{"name":"muffler","primitives":[{"attributes":{"POSITION":0},"indices":1,"mode":4}]}],"accessors":[{"bufferView":0,"componentType":5126,"count":50,"type":"VEC3","max":[0.26,0.275,0.26],"min":[-0.26,-0.275,-0.26]},{"bufferView":1,"componentType":5123,"count":144,"type":"SCALAR"}],"bufferViews":[{"buffer":0,"byteOffset":0,"byteLength":600,"target":34962},{"buffer":0,"byteOffset":600,"byteLength":288,"target":34963}],"buffers":[{"byteLength":888,"uri":"data:application/octet-stream;base64,"}]}